<svg xmlns="http://www.w3.org/2000/svg" xmlns:xlink="http://www.w3.org/1999/xlink" contentStyleType="text/css" data-diagram-type="DESCRIPTION" height="509px" preserveAspectRatio="none" style="width:1131px;height:509px;background:#FFFFFF;" version="1.1" viewBox="0 0 1131 509" width="1131px" zoomAndPan="magnify"><defs/><g><!--cluster /routers--><g class="cluster" data-entity=".routers" data-source-line="6" data-uid="ent0002" id="cluster_.routers"><path d="M424.6875,6 L488.7148,6 A3.75,3.75 0 0 1 491.2148,8.5 L498.2148,28.2969 L661.6875,28.2969 A2.5,2.5 0 0 1 664.1875,30.7969 L664.1875,109.5 A2.5,2.5 0 0 1 661.6875,112 L424.6875,112 A2.5,2.5 0 0 1 422.1875,109.5 L422.1875,8.5 A2.5,2.5 0 0 1 424.6875,6" fill="none" style="stroke:#000000;stroke-width:1.5;"/><line style="stroke:#000000;stroke-width:1.5;" x1="422.1875" x2="498.2148" y1="28.2969" y2="28.2969"/><text fill="#000000" font-family="sans-serif" font-size="14" font-weight="bold" lengthAdjust="spacing" textLength="63.0273" x="426.1875" y="20.9951">/routers</text></g><!--cluster /services--><g class="cluster" data-entity=".services" data-source-line="13" data-uid="ent0005" id="cluster_.services"><path d="M124.6875,152 L195.585,152 A3.75,3.75 0 0 1 198.085,154.5 L205.085,174.2969 L685.6875,174.2969 A2.5,2.5 0 0 1 688.1875,176.7969 L688.1875,255.5 A2.5,2.5 0 0 1 685.6875,258 L124.6875,258 A2.5,2.5 0 0 1 122.1875,255.5 L122.1875,154.5 A2.5,2.5 0 0 1 124.6875,152" fill="none" style="stroke:#000000;stroke-width:1.5;"/><line style="stroke:#000000;stroke-width:1.5;" x1="122.1875" x2="205.085" y1="174.2969" y2="174.2969"/><text fill="#000000" font-family="sans-serif" font-size="14" font-weight="bold" lengthAdjust="spacing" textLength="69.8975" x="126.1875" y="166.9951">/services</text></g><!--cluster /models--><g class="cluster" data-entity=".models" data-source-line="25" data-uid="ent0014" id="cluster_.models"><path d="M31.6875,298 L94.6553,298 A3.75,3.75 0 0 1 97.1553,300.5 L104.1553,320.2969 L253.6875,320.2969 A2.5,2.5 0 0 1 256.1875,322.7969 L256.1875,408.5 A2.5,2.5 0 0 1 253.6875,411 L31.6875,411 A2.5,2.5 0 0 1 29.1875,408.5 L29.1875,300.5 A2.5,2.5 0 0 1 31.6875,298" fill="none" style="stroke:#000000;stroke-width:1.5;"/><line style="stroke:#000000;stroke-width:1.5;" x1="29.1875" x2="104.1553" y1="320.2969" y2="320.2969"/><text fill="#000000" font-family="sans-serif" font-size="14" font-weight="bold" lengthAdjust="spacing" textLength="61.9678" x="33.1875" y="312.9951">/models</text></g><!--cluster /modules--><g class="cluster" data-entity=".modules" data-source-line="30" data-uid="ent0017" id="cluster_.modules"><path d="M364.6875,298 L437.6221,298 A3.75,3.75 0 0 1 440.1221,300.5 L447.1221,320.2969 L584.6875,320.2969 A2.5,2.5 0 0 1 587.1875,322.7969 L587.1875,408.5 A2.5,2.5 0 0 1 584.6875,411 L364.6875,411 A2.5,2.5 0 0 1 362.1875,408.5 L362.1875,300.5 A2.5,2.5 0 0 1 364.6875,298" fill="none" style="stroke:#000000;stroke-width:1.5;"/><line style="stroke:#000000;stroke-width:1.5;" x1="362.1875" x2="447.1221" y1="320.2969" y2="320.2969"/><text fill="#000000" font-family="sans-serif" font-size="14" font-weight="bold" lengthAdjust="spacing" textLength="71.9346" x="366.1875" y="312.9951">/modules</text></g><!--cluster /templates--><g class="cluster" data-entity=".templates" data-source-line="39" data-uid="ent0019" id="cluster_.templates"><path d="M761.6875,303 L847.3643,303 A3.75,3.75 0 0 1 849.8643,305.5 L856.8643,325.2969 L1121.6875,325.2969 A2.5,2.5 0 0 1 1124.1875,327.7969 L1124.1875,403.5 A2.5,2.5 0 0 1 1121.6875,406 L761.6875,406 A2.5,2.5 0 0 1 759.1875,403.5 L759.1875,305.5 A2.5,2.5 0 0 1 761.6875,303" fill="none" style="stroke:#000000;stroke-width:1.5;"/><line style="stroke:#000000;stroke-width:1.5;" x1="759.1875" x2="856.8643" y1="325.2969" y2="325.2969"/><text fill="#000000" font-family="sans-serif" font-size="14" font-weight="bold" lengthAdjust="spacing" textLength="84.6768" x="763.1875" y="317.9951">/templates</text></g><!--entity web--><g class="entity" data-entity="web" data-source-line="7" data-uid="ent0003" id="entity_web"><path d="M568.6875,49 L614.1377,49 A3.75,3.75 0 0 1 616.6377,51.5 L623.6377,71.2969 L638.1377,71.2969 A2.5,2.5 0 0 1 640.6377,73.7969 L640.6377,85.7969 A2.5,2.5 0 0 1 638.1377,88.2969 L568.6875,88.2969 A2.5,2.5 0 0 1 566.1875,85.7969 L566.1875,51.5 A2.5,2.5 0 0 1 568.6875,49" fill="#F1F1F1" style="stroke:#181818;stroke-width:0.5;"/><line style="stroke:#181818;stroke-width:0.5;" x1="566.1875" x2="623.6377" y1="71.2969" y2="71.2969"/><text fill="#000000" font-family="sans-serif" font-size="14" font-weight="bold" lengthAdjust="spacing" textLength="32.4502" x="576.1875" y="64.9951">web</text></g><!--entity api--><g class="entity" data-entity="api" data-source-line="8" data-uid="ent0004" id="entity_api"><path d="M467.6875,49 L504.9551,49 A3.75,3.75 0 0 1 507.4551,51.5 L514.4551,71.2969 L528.9551,71.2969 A2.5,2.5 0 0 1 531.4551,73.7969 L531.4551,85.7969 A2.5,2.5 0 0 1 528.9551,88.2969 L467.6875,88.2969 A2.5,2.5 0 0 1 465.1875,85.7969 L465.1875,51.5 A2.5,2.5 0 0 1 467.6875,49" fill="#F1F1F1" style="stroke:#181818;stroke-width:0.5;"/><line style="stroke:#181818;stroke-width:0.5;" x1="465.1875" x2="514.4551" y1="71.2969" y2="71.2969"/><text fill="#000000" font-family="sans-serif" font-size="14" font-weight="bold" lengthAdjust="spacing" textLength="24.2676" x="475.1875" y="64.9951">api</text></g><!--entity notify--><g class="entity" data-entity="notify" data-source-line="14" data-uid="ent0006" id="entity_notify"><path d="M167.6875,195 L226.9805,195 A3.75,3.75 0 0 1 229.4805,197.5 L236.4805,217.2969 L250.9805,217.2969 A2.5,2.5 0 0 1 253.4805,219.7969 L253.4805,231.7969 A2.5,2.5 0 0 1 250.9805,234.2969 L167.6875,234.2969 A2.5,2.5 0 0 1 165.1875,231.7969 L165.1875,197.5 A2.5,2.5 0 0 1 167.6875,195" fill="#F1F1F1" style="stroke:#181818;stroke-width:0.5;"/><line style="stroke:#181818;stroke-width:0.5;" x1="165.1875" x2="236.4805" y1="217.2969" y2="217.2969"/><text fill="#000000" font-family="sans-serif" font-size="14" font-weight="bold" lengthAdjust="spacing" textLength="46.293" x="175.1875" y="210.9951">notify</text></g><!--entity actions--><g class="entity" data-entity="actions" data-source-line="15" data-uid="ent0007" id="entity_actions"><path d="M291.1875,195 L361.3428,195 A3.75,3.75 0 0 1 363.8428,197.5 L370.8428,217.2969 L385.3428,217.2969 A2.5,2.5 0 0 1 387.8428,219.7969 L387.8428,231.7969 A2.5,2.5 0 0 1 385.3428,234.2969 L291.1875,234.2969 A2.5,2.5 0 0 1 288.6875,231.7969 L288.6875,197.5 A2.5,2.5 0 0 1 291.1875,195" fill="#F1F1F1" style="stroke:#181818;stroke-width:0.5;"/><line style="stroke:#181818;stroke-width:0.5;" x1="288.6875" x2="370.8428" y1="217.2969" y2="217.2969"/><text fill="#000000" font-family="sans-serif" font-size="14" font-weight="bold" lengthAdjust="spacing" textLength="57.1553" x="298.6875" y="210.9951">actions</text></g><!--entity mailer--><g class="entity" data-entity="mailer" data-source-line="16" data-uid="ent0008" id="entity_mailer"><path d="M425.6875,195 L488.7197,195 A3.75,3.75 0 0 1 491.2197,197.5 L498.2197,217.2969 L512.7197,217.2969 A2.5,2.5 0 0 1 515.2197,219.7969 L515.2197,231.7969 A2.5,2.5 0 0 1 512.7197,234.2969 L425.6875,234.2969 A2.5,2.5 0 0 1 423.1875,231.7969 L423.1875,197.5 A2.5,2.5 0 0 1 425.6875,195" fill="#F1F1F1" style="stroke:#181818;stroke-width:0.5;"/><line style="stroke:#181818;stroke-width:0.5;" x1="423.1875" x2="498.2197" y1="217.2969" y2="217.2969"/><text fill="#000000" font-family="sans-serif" font-size="14" font-weight="bold" lengthAdjust="spacing" textLength="50.0322" x="433.1875" y="210.9951">mailer</text></g><!--entity webhook--><g class="entity" data-entity="webhook" data-source-line="17" data-uid="ent0009" id="entity_webhook"><path d="M553.1875,195 L637.1514,195 A3.75,3.75 0 0 1 639.6514,197.5 L646.6514,217.2969 L661.1514,217.2969 A2.5,2.5 0 0 1 663.6514,219.7969 L663.6514,231.7969 A2.5,2.5 0 0 1 661.1514,234.2969 L553.1875,234.2969 A2.5,2.5 0 0 1 550.6875,231.7969 L550.6875,197.5 A2.5,2.5 0 0 1 553.1875,195" fill="#F1F1F1" style="stroke:#181818;stroke-width:0.5;"/><line style="stroke:#181818;stroke-width:0.5;" x1="550.6875" x2="646.6514" y1="217.2969" y2="217.2969"/><text fill="#000000" font-family="sans-serif" font-size="14" font-weight="bold" lengthAdjust="spacing" textLength="70.9639" x="560.6875" y="210.9951">webhook</text></g><!--entity ActionRun model--><g class="entity" data-entity="ActionRun model" data-source-line="26" data-uid="ent0015" id="entity_ActionRun model"><polygon fill="#F1F1F1" points="72.1875,351,82.1875,341,231.7959,341,231.7959,377.2969,221.7959,387.2969,72.1875,387.2969,72.1875,351" style="stroke:#181818;stroke-width:0.5;"/><line style="stroke:#181818;stroke-width:0.5;" x1="221.7959" x2="231.7959" y1="351" y2="341"/><line style="stroke:#181818;stroke-width:0.5;" x1="72.1875" x2="221.7959" y1="351" y2="351"/><line style="stroke:#181818;stroke-width:0.5;" x1="221.7959" x2="221.7959" y1="351" y2="387.2969"/><text fill="#000000" font-family="sans-serif" font-size="14" lengthAdjust="spacing" textLength="119.6084" x="87.1875" y="373.9951">ActionRun model</text></g><!--entity ActionRun struct--><g class="entity" data-entity="ActionRun struct" data-source-line="31" data-uid="ent0018" id="entity_ActionRun struct"><polygon fill="#F1F1F1" points="405.6875,351,415.6875,341,562.3018,341,562.3018,377.2969,552.3018,387.2969,405.6875,387.2969,405.6875,351" style="stroke:#181818;stroke-width:0.5;"/><line style="stroke:#181818;stroke-width:0.5;" x1="552.3018" x2="562.3018" y1="351" y2="341"/><line style="stroke:#181818;stroke-width:0.5;" x1="405.6875" x2="552.3018" y1="351" y2="351"/><line style="stroke:#181818;stroke-width:0.5;" x1="552.3018" x2="552.3018" y1="351" y2="387.2969"/><text fill="#000000" font-family="sans-serif" font-size="14" lengthAdjust="spacing" textLength="116.6143" x="420.6875" y="373.9951">ActionRun struct</text></g><!--entity /templates/mail/actions/now_done.tmpl--><g class="entity" data-entity=".templates.mail.actions.now_done.tmpl" data-source-line="41" data-uid="ent0020" id="entity_.templates.mail.actions.now_done.tmpl"><path d="M802.6875,348.5 L802.6875,379.7969 A2.5,2.5 0 0 0 805.1875,382.2969 L1097.1113,382.2969 A2.5,2.5 0 0 0 1099.6113,379.7969 L1099.6113,356 L1089.6113,346 L805.1875,346 A2.5,2.5 0 0 0 802.6875,348.5" fill="#F1F1F1" style="stroke:#181818;stroke-width:0.5;"/><path d="M1089.6113,346 L1089.6113,353.5 A2.5,2.5 0 0 0 1092.1113,356 L1099.6113,356" fill="#F1F1F1" style="stroke:#181818;stroke-width:0.5;"/><text fill="#000000" font-family="sans-serif" font-size="14" lengthAdjust="spacing" textLength="276.9238" x="812.6875" y="368.9951">/templates/mail/actions/now_done.tmpl</text></g><!--entity git--><g class="entity" data-entity="git" data-source-line="23" data-uid="ent0013" id="entity_git"><path d="M57.1875,202 C57.1875,192 76.3203,192 76.3203,192 C76.3203,192 95.4531,192 95.4531,202 L95.4531,227.2969 C95.4531,237.2969 76.3203,237.2969 76.3203,237.2969 C76.3203,237.2969 57.1875,237.2969 57.1875,227.2969 L57.1875,202" fill="#F1F1F1" style="stroke:#181818;stroke-width:0.5;"/><path d="M57.1875,202 C57.1875,212 76.3203,212 76.3203,212 C76.3203,212 95.4531,212 95.4531,202" fill="none" style="stroke:#181818;stroke-width:0.5;"/><text fill="#000000" font-family="sans-serif" font-size="14" lengthAdjust="spacing" textLength="18.2656" x="67.1875" y="228.9951">git</text></g><!--entity DB--><g class="entity" data-entity="DB" data-source-line="28" data-uid="ent0016" id="entity_DB"><path d="M17.1875,457 C17.1875,447 37.3799,447 37.3799,447 C37.3799,447 57.5723,447 57.5723,457 L57.5723,482.2969 C57.5723,492.2969 37.3799,492.2969 37.3799,492.2969 C37.3799,492.2969 17.1875,492.2969 17.1875,482.2969 L17.1875,457" fill="#F1F1F1" style="stroke:#181818;stroke-width:0.5;"/><path d="M17.1875,457 C17.1875,467 37.3799,467 37.3799,467 C37.3799,467 57.5723,467 57.5723,457" fill="none" style="stroke:#181818;stroke-width:0.5;"/><text fill="#000000" font-family="sans-serif" font-size="14" lengthAdjust="spacing" textLength="20.3848" x="27.1875" y="483.9951">DB</text></g><!--link notify to actions--><!--link actions to mailer--><!--link mailer to webhook--><!--link /routers to /services--><g class="link" data-entity-1=".routers" data-entity-2=".services" data-source-line="51" data-uid="lnk21" id="link_.routers_.services"><path d="M421.8611,70.3081 C421.6767,70.3269 421.4894,70.3459 421.2994,70.3652 C420.5393,70.4426 419.7346,70.5252 418.8867,70.613 C412.1037,71.3154 402.5618,72.3509 391.0723,73.7242 C368.0934,76.4709 337.3244,80.5694 305.2563,86.0588 C241.12,97.0375 171.7875,113.58 149.1875,136 C146.1388,139.025 143.5497,142.4538 141.3537,146.1441 C140.2557,147.9893 141.784,144.4585 140.8742,146.4167" fill="none" id="/routers-to-/services" style="stroke:#181818;stroke-width:1;"/><polygon fill="#181818" points="138.3462,151.8581,145.7659,145.3814,140.4529,147.3236,138.5107,142.0106,138.3462,151.8581" style="stroke:#181818;stroke-width:1;"/></g><!--link /routers to /modules--><g class="link" data-entity-1=".routers" data-entity-2=".modules" data-source-line="52" data-uid="lnk22" id="link_.routers_.modules"><path d="M437.1451,112.2193 C437.1881,112.3137 437.2313,112.408 437.2748,112.5022 C440.0594,118.5288 443.9,124.015 449.1875,128 C469.6975,143.45 662.3475,117.53 680.1875,136 C722.7975,180.11 722.9575,230.04 680.1875,274 C668.9075,285.59 401.7275,271.78 389.1875,282 C385.7175,284.8288 382.8092,288.1602 380.3775,291.831 C379.1616,293.6664 378.0649,295.5867 377.0767,297.5714 C377.0149,297.6955 379.5899,292.43 379.529,292.5545" fill="none" id="/routers-to-/modules" style="stroke:#181818;stroke-width:1;"/><polygon fill="#181818" points="376.8927,297.9443,384.4404,291.6172,379.0896,293.4528,377.254,288.1021,376.8927,297.9443" style="stroke:#181818;stroke-width:1;"/></g><!--link /routers to /models--><g class="link" data-entity-1=".routers" data-entity-2=".models" data-source-line="53" data-uid="lnk23" id="link_.routers_.models"><path d="M422.0035,69.5386 C421.5627,69.5423 421.1053,69.5464 420.6316,69.5508 C418.7366,69.5685 416.5799,69.5923 414.1796,69.6241 C404.5783,69.7516 391.0801,70.0084 374.8495,70.525 C342.3884,71.5581 298.9981,73.63 253.9963,77.7825 C163.9925,86.0875 67.5425,102.715 39.1875,136 C6.9875,173.8 6,229.38 13.3,276.0813 C16.95,299.4319 22.6719,320.5628 27.6,336.1417 C27.908,337.1154 28.2129,338.0674 28.514,338.9969 C28.6646,339.4616 28.8142,339.9208 28.9627,340.3741 C29.037,340.6008 27.2333,335.1275 27.307,335.3513" fill="none" id="/routers-to-/models" style="stroke:#181818;stroke-width:1;"/><polygon fill="#181818" points="29.1848,341.0499,30.1672,331.2502,27.62,336.3011,22.5691,333.7539,29.1848,341.0499" style="stroke:#181818;stroke-width:1;"/></g><!--link /routers to /templates--><g class="link" data-entity-1=".routers" data-entity-2=".templates" data-source-line="55" data-uid="lnk24" id="link_.routers_.templates"><path d="M437.1267,112.2462 C437.1697,112.3406 437.213,112.4348 437.2566,112.5289 C440.0438,118.5519 443.89,124.03 449.1875,128 C473.4775,146.2 699.0175,116.4 722.1875,136 C760.8325,168.695 772.3375,224.1975 774.0563,272.135 C774.2711,278.1272 774.333,284.0012 774.2759,289.6976 C774.2474,292.5459 774.1891,295.3497 774.1053,298.1018 C774.0634,299.4778 774.2557,294.8457 774.2015,296.1949" fill="none" id="/routers-to-/templates" style="stroke:#181818;stroke-width:1;"/><polygon fill="#181818" points="773.961,302.1901,778.3186,293.3577,774.1614,297.1941,770.325,293.0369,773.961,302.1901" style="stroke:#181818;stroke-width:1;"/></g><!--link /services to /models--><g class="link" data-entity-1=".services" data-entity-2=".models" data-source-line="57" data-uid="lnk25" id="link_.services_.models"><path d="M123.3456,258.2795 C123.3039,258.3744 123.262,258.4692 123.2198,258.5639 C123.1354,258.7532 123.05,258.9421 122.9637,259.1304 C122.7909,259.5071 122.6142,259.8819 122.4333,260.2545 C122.0717,260.9996 121.6937,261.7359 121.2986,262.4616 C120.5084,263.9131 119.65,265.3223 118.7175,266.675 C116.8525,269.3805 114.6913,271.86 112.1875,274 C93.0775,290.33 74.7375,265.03 56.1875,282 C52.8838,285.0225 50.1016,288.5008 47.7631,292.2801 C47.1784,293.225 46.6215,294.1886 46.0912,295.1687 C45.826,295.6587 45.5674,296.1528 45.3153,296.6508 C45.1893,296.8997 45.0649,297.1496 44.942,297.4005 C44.8806,297.5259 47.423,292.2457 47.3624,292.3716" fill="none" id="/services-to-/models" style="stroke:#181818;stroke-width:1;"/><polygon fill="#181818" points="44.759,297.7774,52.2679,291.4043,46.9285,293.2726,45.0602,287.9331,44.759,297.7774" style="stroke:#181818;stroke-width:1;"/></g><!--link /services to /modules--><g class="link" data-entity-1=".services" data-entity-2=".modules" data-source-line="58" data-uid="lnk26" id="link_.services_.modules"><path d="M137.3049,258.0114 C137.3476,258.1062 137.3905,258.2009 137.4338,258.2955 C140.1994,264.3469 143.9925,269.895 149.1875,274 C166.5075,287.68 227.3275,274.78 248.1875,282 C278.4575,292.48 308.485,312.265 331.1763,329.6575 C342.5219,338.3538 352.0334,346.4519 358.8242,352.4897 C359.6731,353.2444 360.4794,353.9669 361.2415,354.6544 C361.432,354.8263 361.6198,354.996 361.8047,355.1634 C361.8972,355.2472 357.5444,351.2997 357.6355,351.3823" fill="none" id="/services-to-/modules" style="stroke:#181818;stroke-width:1;"/><polygon fill="#181818" points="362.0801,355.4129,358.1003,346.404,358.3763,352.0541,352.7262,352.3301,362.0801,355.4129" style="stroke:#181818;stroke-width:1;"/></g><!--link /services to /templates--><!--reverse link git to /services--><g class="link" data-entity-1="git" data-entity-2=".services" data-source-line="61" data-uid="lnk29" id="link_git_.services"><path d="M101.5975,214.5 C107.2725,214.5 106.9475,214.5 112.6225,214.5 C115.46,214.5 118.2975,214.5 121.135,214.5 C121.3123,214.5 121.4897,214.5 121.667,214.5 C121.7557,214.5 121.8444,214.5 121.933,214.5 C121.9774,214.5 122.0217,214.5 122.0661,214.5" fill="none" id="git-backto-/services" style="stroke:#181818;stroke-width:1;"/><polygon fill="#181818" points="95.5975,214.5,104.5975,218.5,100.5975,214.5,104.5975,210.5,95.5975,214.5" style="stroke:#181818;stroke-width:1;"/></g><!--link /models to DB--><g class="link" data-entity-1=".models" data-entity-2="DB" data-source-line="63" data-uid="lnk30" id="link_.models_DB"><path d="M37.1875,411.2687 C37.1875,411.4071 37.1875,411.5456 37.1875,411.6841 C37.1875,412.7924 37.1875,413.9037 37.1875,415.0162 C37.1875,417.2411 37.1875,419.4702 37.1875,421.6872 C37.1875,430.555 37.1875,433.2275 37.1875,440.65" fill="none" id="/models-to-DB" style="stroke:#181818;stroke-width:1;"/><polygon fill="#181818" points="37.1875,446.65,41.1875,437.65,37.1875,441.65,33.1875,437.65,37.1875,446.65" style="stroke:#181818;stroke-width:1;"/></g><!--SRC=[VLFBReCm4BpxAonVEANyGQL6-O9U4OeCB635s96zD8gg_dkDCUPHfpb4Mi_ixineoLej6p2KvGWMBQFV9AFkLmY5q1cEGYlgeP9aFuH4kj4ZWl4D4__EwnllW3wWsjNyBdoTBG_ClUIydkRQt8nAWM47XfkH6xZht0AYK1qZsyKMp9UeuSzcfL6qp_toUStkRU12WZbgxhM-4VzOp7DAUZAYwx7eHTE0Aa_lj0ZZofctL0dYl2FmGf6WXRsbizTmv1Mtpdmda6tS3he16RqgLr7suJT_ZefwbEtwB-T3-oZXPRz5CzOOyY-i7e1Yxn9t_nnfhKVPqChbIAMe33VFIIh9udHdu6fD7O-cTKufysCSHAqUJGriVpS8mrroN3LbSrUFWwGBw2VDicPqRSkdFEC1AVsuDbh16phOtqbMp9Vi0c_qGqqvXn3BLzYKK1fSRisXAJZuJ_U63oGDHZib8IirkJa9HzMlqCLl0esga-XUMPIHcFuIZNaUyEtjRrNyHzl8sH4bj3WHtEVYXGPHgv3BkII_]--></g></svg>