<svg xmlns="http://www.w3.org/2000/svg" xmlns:xlink="http://www.w3.org/1999/xlink" contentStyleType="text/css" data-diagram-type="DESCRIPTION" height="509px" preserveAspectRatio="none" style="width:750px;height:509px;background:#FFFFFF;" version="1.1" viewBox="0 0 750 509" width="750px" zoomAndPan="magnify"><defs/><g><!--cluster /routers--><g class="cluster" data-entity=".routers" data-source-line="6" data-uid="ent0002" id="cluster_.routers"><path d="M144.5,6 L208.5273,6 A3.75,3.75 0 0 1 211.0273,8.5 L218.0273,28.2969 L381.5,28.2969 A2.5,2.5 0 0 1 384,30.7969 L384,109.5 A2.5,2.5 0 0 1 381.5,112 L144.5,112 A2.5,2.5 0 0 1 142,109.5 L142,8.5 A2.5,2.5 0 0 1 144.5,6" fill="none" style="stroke:#000000;stroke-width:1.5;"/><line style="stroke:#000000;stroke-width:1.5;" x1="142" x2="218.0273" y1="28.2969" y2="28.2969"/><text fill="#000000" font-family="sans-serif" font-size="14" font-weight="bold" lengthAdjust="spacing" textLength="63.0273" x="146" y="20.9951">/routers</text></g><!--cluster /services--><g class="cluster" data-entity=".services" data-source-line="13" data-uid="ent0005" id="cluster_.services"><path d="M144.5,152 L215.3975,152 A3.75,3.75 0 0 1 217.8975,154.5 L224.8975,174.2969 L705.5,174.2969 A2.5,2.5 0 0 1 708,176.7969 L708,255.5 A2.5,2.5 0 0 1 705.5,258 L144.5,258 A2.5,2.5 0 0 1 142,255.5 L142,154.5 A2.5,2.5 0 0 1 144.5,152" fill="none" style="stroke:#000000;stroke-width:1.5;"/><line style="stroke:#000000;stroke-width:1.5;" x1="142" x2="224.8975" y1="174.2969" y2="174.2969"/><text fill="#000000" font-family="sans-serif" font-size="14" font-weight="bold" lengthAdjust="spacing" textLength="69.8975" x="146" y="166.9951">/services</text></g><!--cluster /models--><g class="cluster" data-entity=".models" data-source-line="25" data-uid="ent0014" id="cluster_.models"><path d="M117.5,298 L180.4678,298 A3.75,3.75 0 0 1 182.9678,300.5 L189.9678,320.2969 L339.5,320.2969 A2.5,2.5 0 0 1 342,322.7969 L342,408.5 A2.5,2.5 0 0 1 339.5,411 L117.5,411 A2.5,2.5 0 0 1 115,408.5 L115,300.5 A2.5,2.5 0 0 1 117.5,298" fill="none" style="stroke:#000000;stroke-width:1.5;"/><line style="stroke:#000000;stroke-width:1.5;" x1="115" x2="189.9678" y1="320.2969" y2="320.2969"/><text fill="#000000" font-family="sans-serif" font-size="14" font-weight="bold" lengthAdjust="spacing" textLength="61.9678" x="119" y="312.9951">/models</text></g><!--cluster /modules--><g class="cluster" data-entity=".modules" data-source-line="30" data-uid="ent0017" id="cluster_.modules"><path d="M447.5,298 L520.4346,298 A3.75,3.75 0 0 1 522.9346,300.5 L529.9346,320.2969 L667.5,320.2969 A2.5,2.5 0 0 1 670,322.7969 L670,408.5 A2.5,2.5 0 0 1 667.5,411 L447.5,411 A2.5,2.5 0 0 1 445,408.5 L445,300.5 A2.5,2.5 0 0 1 447.5,298" fill="none" style="stroke:#000000;stroke-width:1.5;"/><line style="stroke:#000000;stroke-width:1.5;" x1="445" x2="529.9346" y1="320.2969" y2="320.2969"/><text fill="#000000" font-family="sans-serif" font-size="14" font-weight="bold" lengthAdjust="spacing" textLength="71.9346" x="449" y="312.9951">/modules</text></g><!--entity web--><g class="entity" data-entity="web" data-source-line="7" data-uid="ent0003" id="entity_web"><path d="M288.5,49 L333.9502,49 A3.75,3.75 0 0 1 336.4502,51.5 L343.4502,71.2969 L357.9502,71.2969 A2.5,2.5 0 0 1 360.4502,73.7969 L360.4502,85.7969 A2.5,2.5 0 0 1 357.9502,88.2969 L288.5,88.2969 A2.5,2.5 0 0 1 286,85.7969 L286,51.5 A2.5,2.5 0 0 1 288.5,49" fill="#F1F1F1" style="stroke:#181818;stroke-width:0.5;"/><line style="stroke:#181818;stroke-width:0.5;" x1="286" x2="343.4502" y1="71.2969" y2="71.2969"/><text fill="#000000" font-family="sans-serif" font-size="14" font-weight="bold" lengthAdjust="spacing" textLength="32.4502" x="296" y="64.9951">web</text></g><!--entity api--><g class="entity" data-entity="api" data-source-line="8" data-uid="ent0004" id="entity_api"><path d="M187.5,49 L224.7676,49 A3.75,3.75 0 0 1 227.2676,51.5 L234.2676,71.2969 L248.7676,71.2969 A2.5,2.5 0 0 1 251.2676,73.7969 L251.2676,85.7969 A2.5,2.5 0 0 1 248.7676,88.2969 L187.5,88.2969 A2.5,2.5 0 0 1 185,85.7969 L185,51.5 A2.5,2.5 0 0 1 187.5,49" fill="#F1F1F1" style="stroke:#181818;stroke-width:0.5;"/><line style="stroke:#181818;stroke-width:0.5;" x1="185" x2="234.2676" y1="71.2969" y2="71.2969"/><text fill="#000000" font-family="sans-serif" font-size="14" font-weight="bold" lengthAdjust="spacing" textLength="24.2676" x="195" y="64.9951">api</text></g><!--entity notify--><g class="entity" data-entity="notify" data-source-line="14" data-uid="ent0006" id="entity_notify"><path d="M187.5,195 L246.793,195 A3.75,3.75 0 0 1 249.293,197.5 L256.293,217.2969 L270.793,217.2969 A2.5,2.5 0 0 1 273.293,219.7969 L273.293,231.7969 A2.5,2.5 0 0 1 270.793,234.2969 L187.5,234.2969 A2.5,2.5 0 0 1 185,231.7969 L185,197.5 A2.5,2.5 0 0 1 187.5,195" fill="#F1F1F1" style="stroke:#181818;stroke-width:0.5;"/><line style="stroke:#181818;stroke-width:0.5;" x1="185" x2="256.293" y1="217.2969" y2="217.2969"/><text fill="#000000" font-family="sans-serif" font-size="14" font-weight="bold" lengthAdjust="spacing" textLength="46.293" x="195" y="210.9951">notify</text></g><!--entity actions--><g class="entity" data-entity="actions" data-source-line="15" data-uid="ent0007" id="entity_actions"><path d="M311,195 L381.1553,195 A3.75,3.75 0 0 1 383.6553,197.5 L390.6553,217.2969 L405.1553,217.2969 A2.5,2.5 0 0 1 407.6553,219.7969 L407.6553,231.7969 A2.5,2.5 0 0 1 405.1553,234.2969 L311,234.2969 A2.5,2.5 0 0 1 308.5,231.7969 L308.5,197.5 A2.5,2.5 0 0 1 311,195" fill="#F1F1F1" style="stroke:#181818;stroke-width:0.5;"/><line style="stroke:#181818;stroke-width:0.5;" x1="308.5" x2="390.6553" y1="217.2969" y2="217.2969"/><text fill="#000000" font-family="sans-serif" font-size="14" font-weight="bold" lengthAdjust="spacing" textLength="57.1553" x="318.5" y="210.9951">actions</text></g><!--entity mailer--><g class="entity" data-entity="mailer" data-source-line="16" data-uid="ent0008" id="entity_mailer"><path d="M445.5,195 L508.5322,195 A3.75,3.75 0 0 1 511.0322,197.5 L518.0322,217.2969 L532.5322,217.2969 A2.5,2.5 0 0 1 535.0322,219.7969 L535.0322,231.7969 A2.5,2.5 0 0 1 532.5322,234.2969 L445.5,234.2969 A2.5,2.5 0 0 1 443,231.7969 L443,197.5 A2.5,2.5 0 0 1 445.5,195" fill="#F1F1F1" style="stroke:#181818;stroke-width:0.5;"/><line style="stroke:#181818;stroke-width:0.5;" x1="443" x2="518.0322" y1="217.2969" y2="217.2969"/><text fill="#000000" font-family="sans-serif" font-size="14" font-weight="bold" lengthAdjust="spacing" textLength="50.0322" x="453" y="210.9951">mailer</text></g><!--entity webhook--><g class="entity" data-entity="webhook" data-source-line="17" data-uid="ent0009" id="entity_webhook"><path d="M573,195 L656.9639,195 A3.75,3.75 0 0 1 659.4639,197.5 L666.4639,217.2969 L680.9639,217.2969 A2.5,2.5 0 0 1 683.4639,219.7969 L683.4639,231.7969 A2.5,2.5 0 0 1 680.9639,234.2969 L573,234.2969 A2.5,2.5 0 0 1 570.5,231.7969 L570.5,197.5 A2.5,2.5 0 0 1 573,195" fill="#F1F1F1" style="stroke:#181818;stroke-width:0.5;"/><line style="stroke:#181818;stroke-width:0.5;" x1="570.5" x2="666.4639" y1="217.2969" y2="217.2969"/><text fill="#000000" font-family="sans-serif" font-size="14" font-weight="bold" lengthAdjust="spacing" textLength="70.9639" x="580.5" y="210.9951">webhook</text></g><!--entity ActionRun model--><g class="entity" data-entity="ActionRun model" data-source-line="26" data-uid="ent0015" id="entity_ActionRun model"><polygon fill="#F1F1F1" points="158,351,168,341,317.6084,341,317.6084,377.2969,307.6084,387.2969,158,387.2969,158,351" style="stroke:#181818;stroke-width:0.5;"/><line style="stroke:#181818;stroke-width:0.5;" x1="307.6084" x2="317.6084" y1="351" y2="341"/><line style="stroke:#181818;stroke-width:0.5;" x1="158" x2="307.6084" y1="351" y2="351"/><line style="stroke:#181818;stroke-width:0.5;" x1="307.6084" x2="307.6084" y1="351" y2="387.2969"/><text fill="#000000" font-family="sans-serif" font-size="14" lengthAdjust="spacing" textLength="119.6084" x="173" y="373.9951">ActionRun model</text></g><!--entity ActionRun struct--><g class="entity" data-entity="ActionRun struct" data-source-line="31" data-uid="ent0018" id="entity_ActionRun struct"><polygon fill="#F1F1F1" points="488.5,351,498.5,341,645.1143,341,645.1143,377.2969,635.1143,387.2969,488.5,387.2969,488.5,351" style="stroke:#181818;stroke-width:0.5;"/><line style="stroke:#181818;stroke-width:0.5;" x1="635.1143" x2="645.1143" y1="351" y2="341"/><line style="stroke:#181818;stroke-width:0.5;" x1="488.5" x2="635.1143" y1="351" y2="351"/><line style="stroke:#181818;stroke-width:0.5;" x1="635.1143" x2="635.1143" y1="351" y2="387.2969"/><text fill="#000000" font-family="sans-serif" font-size="14" lengthAdjust="spacing" textLength="116.6143" x="503.5" y="373.9951">ActionRun struct</text></g><!--entity git--><g class="entity" data-entity="git" data-source-line="23" data-uid="ent0013" id="entity_git"><path d="M6,202 C6,192 25.1328,192 25.1328,192 C25.1328,192 44.2656,192 44.2656,202 L44.2656,227.2969 C44.2656,237.2969 25.1328,237.2969 25.1328,237.2969 C25.1328,237.2969 6,237.2969 6,227.2969 L6,202" fill="#F1F1F1" style="stroke:#181818;stroke-width:0.5;"/><path d="M6,202 C6,212 25.1328,212 25.1328,212 C25.1328,212 44.2656,212 44.2656,202" fill="none" style="stroke:#181818;stroke-width:0.5;"/><text fill="#000000" font-family="sans-serif" font-size="14" lengthAdjust="spacing" textLength="18.2656" x="16" y="228.9951">git</text></g><!--entity SQLite--><g class="entity" data-entity="SQLite" data-source-line="28" data-uid="ent0016" id="entity_SQLite"><path d="M90,457 C90,447 122.8491,447 122.8491,447 C122.8491,447 155.6982,447 155.6982,457 L155.6982,482.2969 C155.6982,492.2969 122.8491,492.2969 122.8491,492.2969 C122.8491,492.2969 90,492.2969 90,482.2969 L90,457" fill="#F1F1F1" style="stroke:#181818;stroke-width:0.5;"/><path d="M90,457 C90,467 122.8491,467 122.8491,467 C122.8491,467 155.6982,467 155.6982,457" fill="none" style="stroke:#181818;stroke-width:0.5;"/><text fill="#000000" font-family="sans-serif" font-size="14" lengthAdjust="spacing" textLength="45.6982" x="100" y="483.9951">SQLite</text></g><!--link notify to actions--><!--link actions to mailer--><!--link mailer to webhook--><!--link /routers to /services--><g class="link" data-entity-1=".routers" data-entity-2=".services" data-source-line="51" data-uid="lnk19" id="link_.routers_.services"><path d="M150,112.0644 C150,112.3155 150,112.5673 150,112.8196 C150,113.8289 150,114.8472 150,115.8735 C150,124.0838 150,132.8053 150,141.5263 C150,143.7065 150,145.8867 150,148.0589 C150,149.1449 150,150.229 150,151.3101 C150,151.4452 150,145.5803 150,145.7153" fill="none" id="/routers-to-/services" style="stroke:#181818;stroke-width:1;"/><polygon fill="#181818" points="150,151.7153,154,142.7153,150,146.7153,146,142.7153,150,151.7153" style="stroke:#181818;stroke-width:1;"/></g><!--link /routers to /modules--><g class="link" data-entity-1=".routers" data-entity-2=".modules" data-source-line="52" data-uid="lnk20" id="link_.routers_.modules"><path d="M156.7597,112.0281 C156.8449,112.2171 156.9312,112.4056 157.0184,112.5936 C159.8113,118.6087 163.6725,124.0675 169,128 C192.74,145.52 679.3,114.98 700,136 C743.04,179.69 742.6,229.88 700,274 C682.39,292.24 491.59,265.91 472,282 C468.54,284.8425 465.6394,288.1844 463.2134,291.863 C462.0004,293.7023 460.906,295.6258 459.9198,297.6131 C459.8581,297.7373 462.4264,292.4687 462.3656,292.5934" fill="none" id="/routers-to-/modules" style="stroke:#181818;stroke-width:1;"/><polygon fill="#181818" points="459.7361,297.9865,467.2758,291.6498,461.9273,293.4922,460.0849,288.1438,459.7361,297.9865" style="stroke:#181818;stroke-width:1;"/></g><!--link /routers to /models--><g class="link" data-entity-1=".routers" data-entity-2=".models" data-source-line="53" data-uid="lnk21" id="link_.routers_.models"><path d="M141.9275,97.9046 C141.9005,98.01 141.8734,98.1156 141.8464,98.2214 C141.7923,98.4329 141.7381,98.645 141.6839,98.8578 C141.5756,99.2834 141.4671,99.7116 141.3587,100.1422 C141.1417,101.0033 140.9246,101.8741 140.708,102.7533 C139.8414,106.27 138.9813,109.9218 138.1617,113.6327 C136.5225,121.0544 135.045,128.7125 134,136 C126.95,185.21 124.175,240.97 123.175,284.9113 C123.1125,287.6576 123.0569,290.3577 123.0077,293.0072 C122.9831,294.332 122.96,295.6441 122.9385,296.943 C122.9331,297.2677 123.0243,291.5923 123.0191,291.9154" fill="none" id="/routers-to-/models" style="stroke:#181818;stroke-width:1;"/><polygon fill="#181818" points="122.9226,297.9146,127.0669,288.9801,123.003,292.9153,119.0679,288.8514,122.9226,297.9146" style="stroke:#181818;stroke-width:1;"/></g><!--link /services to /models--><g class="link" data-entity-1=".services" data-entity-2=".models" data-source-line="57" data-uid="lnk22" id="link_.services_.models"><path d="M142.1616,258.3292 C142.0679,258.8413 141.9737,259.356 141.879,259.8729 C141.6898,260.9067 141.4989,261.9498 141.3064,263.001 C139.767,271.4108 138.1316,280.3444 136.4963,289.2775 C136.0874,291.5108 135.6786,293.744 135.2713,295.9691 C135.1695,296.5253 136.1481,291.1791 136.0465,291.7342" fill="none" id="/services-to-/models" style="stroke:#181818;stroke-width:1;"/><polygon fill="#181818" points="134.9661,297.6362,140.5213,289.5036,135.8664,292.7179,132.6521,288.063,134.9661,297.6362" style="stroke:#181818;stroke-width:1;"/></g><!--link /services to /modules--><g class="link" data-entity-1=".services" data-entity-2=".modules" data-source-line="58" data-uid="lnk23" id="link_.services_.modules"><path d="M157.0042,258.1585 C157.0472,258.253 157.0903,258.3474 157.1338,258.4417 C159.9131,264.4756 163.74,269.98 169,274 C183.58,285.15 316.59,276.17 334,282 C363.86,291.995 393.155,311.7725 415.2075,329.2825 C426.2338,338.0375 435.4494,346.2256 442.0197,352.3406 C442.841,353.105 443.6209,353.837 444.3579,354.5336 C444.5422,354.7078 440.3712,350.7499 440.55,350.9196" fill="none" id="/services-to-/modules" style="stroke:#181818;stroke-width:1;"/><polygon fill="#181818" points="444.9026,355.0494,441.127,345.953,441.2755,351.6079,435.6206,351.7564,444.9026,355.0494" style="stroke:#181818;stroke-width:1;"/></g><!--reverse link git to /services--><g class="link" data-entity-1="git" data-entity-2=".services" data-source-line="61" data-uid="lnk25" id="link_git_.services"><path d="M50.04,214.5 C67.63,214.5 79.2225,214.5 96.815,214.5 C105.6113,214.5 114.4075,214.5 123.2034,214.5 C127.6014,214.5 131.9993,214.5 136.3971,214.5 C137.4965,214.5 138.5959,214.5 139.6954,214.5 C140.2451,214.5 140.7948,214.5 141.3445,214.5 C141.4819,214.5 141.6194,214.5 141.7568,214.5" fill="none" id="git-backto-/services" style="stroke:#181818;stroke-width:1;"/><polygon fill="#181818" points="44.04,214.5,53.04,218.5,49.04,214.5,53.04,210.5,44.04,214.5" style="stroke:#181818;stroke-width:1;"/></g><!--link /models to SQLite--><g class="link" data-entity-1=".models" data-entity-2="SQLite" data-source-line="63" data-uid="lnk26" id="link_.models_SQLite"><path d="M123,411.2687 C123,411.4071 123,411.5456 123,411.6841 C123,412.7924 123,413.9037 123,415.0162 C123,417.2411 123,419.4702 123,421.6872 C123,430.555 123,433.2275 123,440.65" fill="none" id="/models-to-SQLite" style="stroke:#181818;stroke-width:1;"/><polygon fill="#181818" points="123,446.65,127,437.65,123,441.65,119,437.65,123,446.65" style="stroke:#181818;stroke-width:1;"/></g><!--SRC=[VLF1ReCm3BtdAw9SE7NymQJTTzbsHAXAmOLe8QaIiwgQzkyp8QJGXVM0PB_dvsVNASvMj-2uA14yUi6_MS7fLoc3q3c9oXeUe9eLFumbkhCZWWi54_yYcq_P0R_2QHFBYmfniIG4PKhPJBg-TACnuCG3WpHA1nTRUa1KfXDitTY3-r8D_EbiBAhpRTjyRhF93L9fS8-UUsi_MKXMiqxD3qvrFLQzQbimzU6PLr6kddbBb27EFI8l1XbQx5lJUAr4UPAUXkyKYjMqWsr1fraDHLoyXCxle-415PlwZxTNXV0WCMhOrV3enWRZVr1vEm37dhPENucyiQDk-ObsoRKwEUbkarrM97KQukXTamxdJDDo4MG8ujwEhY4xnQO8ORXeYN2_jsAkwt7GV463bbZBtWlBQQtfZeoz7bjhu0a9Zisg-Q9fyQszccdVSPdr7ZPjAGykDqTe3euxoDV6Xx9JcWQg6RjpiwspSBAzXou3Pz2rxGoyjPPyPEHtqRJH1tpz2ZOs_kEj_6o86iuu4UZb1AVHrTt9_2HgzWi0]--></g></svg>