<?xml version="1.0" encoding="UTF-8" standalone="no"?>
<svg
   width="256px"
   height="288px"
   viewBox="0 0 256 288"
   version="1.1"
   preserveAspectRatio="xMidYMid"
   id="svg109"
   sodipodi:docname="c-plusplus.svg"
   inkscape:version="1.1.1 (3bf5ae0d25, 2021-09-20, custom)"
   xmlns:inkscape="http://www.inkscape.org/namespaces/inkscape"
   xmlns:sodipodi="http://sodipodi.sourceforge.net/DTD/sodipodi-0.dtd"
   xmlns="http://www.w3.org/2000/svg"
   xmlns:svg="http://www.w3.org/2000/svg">
  <defs
     id="defs113" />
  <sodipodi:namedview
     id="namedview111"
     pagecolor="#ffffff"
     bordercolor="#666666"
     borderopacity="1.0"
     inkscape:pageshadow="2"
     inkscape:pageopacity="0.0"
     inkscape:pagecheckerboard="0"
     showgrid="false"
     inkscape:zoom="2.0157454"
     inkscape:cx="125.51188"
     inkscape:cy="123.77555"
     inkscape:window-width="1920"
     inkscape:window-height="1026"
     inkscape:window-x="0"
     inkscape:window-y="0"
     inkscape:window-maximized="1"
     inkscape:current-layer="g107" />
  <g
     id="g107">
    <path
       id="path93"
       d="M 127.49414 0.26953125 C 122.98739 0.32728125 118.4885 1.7173437 113.9375 4.4023438 C 100.3945 12.389344 32.589766 51.236453 12.384766 62.939453 C 4.0637652 67.756453 0.015671875 75.128937 0.013671875 84.710938 C 0.000671875 124.16594 0.013 163.62017 0 203.07617 C 0.002 207.80017 0.9912813 211.98575 2.9882812 215.59375 C 5.0412814 219.30475 8.1560468 222.40666 12.373047 224.84766 C 32.579047 236.55066 100.39359 275.39381 113.93359 283.38281 C 123.03959 288.75581 131.93052 288.94834 141.10352 283.65234 C 175.11852 264.01234 209.17898 244.45494 243.20898 224.83594 C 247.42598 222.39594 250.5427 219.29003 252.5957 215.58203 C 253.0942 214.68003 253.529 213.74308 253.90234 212.76953 C 254.27569 211.79598 254.58731 210.78612 254.83594 209.74219 C 255.08456 208.69825 255.27019 207.62098 255.39453 206.50781 C 255.51888 205.39464 255.58153 204.2457 255.58203 203.06445 C 255.58203 203.06445 255.58136 124.1767 255.56836 84.720703 C 255.56786 83.513203 255.50281 82.339703 255.37305 81.203125 C 255.24328 80.066547 255.04887 78.966656 254.78906 77.902344 C 254.52925 76.838031 254.20509 75.809062 253.81445 74.818359 C 253.42381 73.827656 252.96756 72.874734 252.44531 71.958984 C 250.39331 68.356984 247.31927 65.338172 243.19727 62.951172 C 209.17227 43.332172 175.11556 23.773766 141.10156 4.1347656 C 136.51656 1.4877656 132.00089 0.21178125 127.49414 0.26953125 z M 127.79102 59.019531 C 159.18902 59.019531 186.60216 76.071968 201.28516 101.41797 L 164.34375 122.68945 C 157.02275 110.10145 143.40002 101.63086 127.79102 101.63086 C 104.45002 101.63086 85.527344 120.55158 85.527344 143.89258 C 85.527344 151.52558 87.562562 158.68133 91.101562 164.86133 C 98.386563 177.57933 112.08102 186.15625 127.79102 186.15625 C 143.59802 186.15625 157.37114 177.46923 164.61914 164.61523 L 201.50586 185.98633 C 186.88086 211.54133 159.34602 228.76758 127.79102 228.76758 C 96.294012 228.76758 68.80225 211.61086 54.15625 186.13086 C 47.00625 173.69186 42.916016 159.27058 42.916016 143.89258 C 42.916016 97.018576 80.915012 59.019531 127.79102 59.019531 z M 193.81055 129.21875 L 203.53125 129.21875 L 203.53125 138.93945 L 213.25391 138.93945 L 213.25391 148.66016 L 203.53125 148.66016 L 203.53125 158.38477 L 193.81055 158.38477 L 193.81055 148.66016 L 184.08789 148.66016 L 184.08789 138.93945 L 193.81055 138.93945 L 193.81055 129.21875 z M 229.28125 129.21875 L 239.00586 129.21875 L 239.00586 138.93945 L 248.72852 138.93945 L 248.72852 148.66016 L 239.00586 148.66016 L 239.00586 158.38477 L 229.28125 158.38477 L 229.28125 148.66016 L 219.56055 148.66016 L 219.56055 138.93945 L 229.28125 138.93945 L 229.28125 129.21875 z " />
  </g>
</svg>
