<?xml version="1.0" encoding="UTF-8" standalone="no"?>
<svg
   width="256px"
   height="256px"
   viewBox="0 0 256 256"
   version="1.1"
   preserveAspectRatio="xMidYMid"
   id="svg3"
   sodipodi:docname="javascript_mono.svg"
   inkscape:version="1.4 (e7c3feb100, 2024-10-09)"
   xmlns:inkscape="http://www.inkscape.org/namespaces/inkscape"
   xmlns:sodipodi="http://sodipodi.sourceforge.net/DTD/sodipodi-0.dtd"
   xmlns="http://www.w3.org/2000/svg"
   xmlns:svg="http://www.w3.org/2000/svg">
  <defs
     id="defs3" />
  <sodipodi:namedview
     id="namedview3"
     pagecolor="#ffffff"
     bordercolor="#000000"
     borderopacity="0.25"
     inkscape:showpageshadow="2"
     inkscape:pageopacity="0.0"
     inkscape:pagecheckerboard="0"
     inkscape:deskcolor="#d1d1d1"
     inkscape:zoom="3.7421875"
     inkscape:cx="138.42171"
     inkscape:cy="131.4739"
     inkscape:window-width="2048"
     inkscape:window-height="1211"
     inkscape:window-x="0"
     inkscape:window-y="0"
     inkscape:window-maximized="1"
     inkscape:current-layer="svg3" />
  <path
     id="path1"
     d="M 0 0 L 0 256 L 256 256 L 256 0 L 0 0 z M 194.82617 116.15234 C 210.12034 116.15234 221.11758 121.4809 229.02148 135.40039 L 210.29102 147.42969 C 206.16658 140.04105 201.69957 137.11914 194.82617 137.11914 C 187.78048 137.11914 183.3125 141.58802 183.3125 147.42969 C 183.3125 154.64727 187.78035 157.5689 198.08984 162.03711 L 204.10352 164.61328 C 224.55305 173.37783 236.06641 182.31303 236.06641 202.41797 C 236.06641 224.0715 219.05588 235.92773 196.20117 235.92773 C 173.86172 235.92773 159.42533 225.27342 152.38086 211.35352 L 171.96875 200.01367 C 177.12532 208.43485 183.82713 214.61914 195.68359 214.61914 C 205.65174 214.61914 212.00977 209.63552 212.00977 202.76172 C 212.00977 194.51324 205.47872 191.5912 194.48047 186.78125 L 188.46875 184.20312 C 171.11154 176.81529 159.59766 167.53581 159.59766 147.94531 C 159.59766 129.90178 173.34493 116.15234 194.82617 116.15234 z M 115.25586 117.5293 L 139.31445 117.5293 L 139.31445 199.66797 C 139.31445 224.5853 124.7078 235.92578 103.39844 235.92578 C 84.154593 235.92578 72.983453 225.95892 67.3125 213.93164 L 86.902344 202.07617 C 90.681798 208.77728 94.120325 214.44727 102.36719 214.44727 C 110.2723 214.44727 115.25586 211.35411 115.25586 199.32617 L 115.25586 117.5293 z " />
</svg>
