<?xml version="1.0" encoding="UTF-8" standalone="no"?>
<svg
   width="256px"
   height="256px"
   viewBox="0 0 256 256"
   version="1.1"
   preserveAspectRatio="xMidYMid"
   id="svg10"
   sodipodi:docname="typescript-icon_mono.svg"
   inkscape:version="1.1.1 (3bf5ae0d25, 2021-09-20, custom)"
   xmlns:inkscape="http://www.inkscape.org/namespaces/inkscape"
   xmlns:sodipodi="http://sodipodi.sourceforge.net/DTD/sodipodi-0.dtd"
   xmlns="http://www.w3.org/2000/svg"
   xmlns:svg="http://www.w3.org/2000/svg">
  <defs
     id="defs14" />
  <sodipodi:namedview
     id="namedview12"
     pagecolor="#ffffff"
     bordercolor="#666666"
     borderopacity="1.0"
     inkscape:pageshadow="2"
     inkscape:pageopacity="0.0"
     inkscape:pagecheckerboard="0"
     showgrid="false"
     inkscape:zoom="2.8398438"
     inkscape:cx="128"
     inkscape:cy="128"
     inkscape:window-width="1920"
     inkscape:window-height="1026"
     inkscape:window-x="0"
     inkscape:window-y="0"
     inkscape:window-maximized="1"
     inkscape:current-layer="g8" />
  <g
     id="g8">
    <path
       id="polygon2"
       d="M 0 0 L 0 128 L 0 256 L 128 256 L 256 256 L 256 128 L 256 0 L 128 0 L 0 0 z M 194.10352 117.05469 C 198.66542 117.03802 203.79815 117.42171 206.56641 118.10742 C 213.06799 119.73282 218.02506 122.61838 222.57617 127.33203 C 224.933 129.8514 228.42845 134.44387 228.71289 135.54102 C 228.79416 135.8661 217.65946 143.34195 210.91406 147.52734 C 210.67025 147.68988 209.6948 146.63321 208.59766 145.00781 C 205.30623 140.21289 201.85285 138.1411 196.57031 137.77539 C 188.80904 137.24714 183.81093 141.31162 183.85156 148.09766 C 183.85156 150.08877 184.13652 151.26718 184.94922 152.89258 C 186.65588 156.42782 189.82569 158.54035 199.78125 162.84766 C 218.1076 170.73083 225.94998 175.93257 230.82617 183.32812 C 236.27125 191.57702 237.49075 204.74214 233.79297 214.53516 C 229.72948 225.18151 219.65034 232.41504 205.46875 234.8125 C 201.08018 235.58456 190.67849 235.4627 185.96484 234.60938 C 175.68421 232.7808 165.93194 227.70124 159.91797 221.03711 C 157.56114 218.43647 152.96946 211.64973 153.25391 211.16211 C 153.37581 210.99957 154.43292 210.349 155.61133 209.6582 C 156.74911 209.00804 161.05565 206.53065 165.11914 204.17383 L 172.47461 199.90625 L 174.01758 202.18164 C 176.17123 205.47307 180.88602 209.98479 183.73047 211.48828 C 191.89809 215.79558 203.11232 215.18598 208.63867 210.22852 C 210.9955 208.07487 211.9707 205.8383 211.9707 202.54688 C 211.9707 199.58053 211.60467 198.2818 210.06055 196.04688 C 208.06943 193.20243 204.00711 190.80474 192.4668 185.80664 C 179.26045 180.11775 173.57041 176.58223 168.36914 170.97461 C 165.36216 167.72382 162.51826 162.52177 161.33984 158.17383 C 160.36461 154.55732 160.12051 145.49699 160.89258 141.83984 C 163.61512 129.08048 173.24544 120.18033 187.14258 117.53906 C 188.83401 117.21906 191.36637 117.06469 194.10352 117.05469 z M 101.47266 118.2832 C 126.05678 118.24257 146.33317 118.32379 146.45508 118.48633 C 146.61762 118.60823 146.74023 123.36385 146.74023 129.05273 L 146.74023 139.33203 L 130.07812 139.33203 L 113.41797 139.33203 L 113.41797 186.67188 L 113.41797 234.01172 L 101.63477 234.01172 L 89.849609 234.01172 L 89.849609 186.67188 L 89.849609 139.33203 L 73.189453 139.33203 L 56.529297 139.33203 L 56.611328 128.84961 L 56.732422 118.40625 L 101.47266 118.2832 z " />
  </g>
</svg>
