<?xml version="1.0" encoding="UTF-8" standalone="no"?>
<svg
   height="104.49973"
   width="104.49973"
   version="1.1"
   id="svg221"
   sodipodi:docname="rust.svg"
   inkscape:version="1.2.2 (b0a8486541, 2022-12-01)"
   xmlns:inkscape="http://www.inkscape.org/namespaces/inkscape"
   xmlns:sodipodi="http://sodipodi.sourceforge.net/DTD/sodipodi-0.dtd"
   xmlns="http://www.w3.org/2000/svg"
   xmlns:svg="http://www.w3.org/2000/svg">
  <defs
     id="defs225" />
  <sodipodi:namedview
     id="namedview223"
     pagecolor="#ffffff"
     bordercolor="#999999"
     borderopacity="1"
     inkscape:showpageshadow="0"
     inkscape:pageopacity="0"
     inkscape:pagecheckerboard="0"
     inkscape:deskcolor="#d1d1d1"
     showgrid="false"
     inkscape:zoom="5.5694444"
     inkscape:cx="30.972569"
     inkscape:cy="53.326683"
     inkscape:window-width="1920"
     inkscape:window-height="1011"
     inkscape:window-x="0"
     inkscape:window-y="0"
     inkscape:window-maximized="1"
     inkscape:current-layer="svg221" />
  <path
     d="m 52.249865,4.9798651 c -26.06,0 -47.2699999,21.2199999 -47.2699999,47.2699999 0,26.05 21.2199999,47.27 47.2699999,47.27 26.05,0 47.27,-21.22 47.27,-47.27 0,-26.05 -21.22,-47.2699999 -47.27,-47.2699999 z m -0.07,4.2 a 3.1,3.11 0 0 1 3.02,3.1099999 3.11,3.11 0 0 1 -6.22,0 3.11,3.11 0 0 1 3.2,-3.1099999 z m 7.12,5.1199999 a 38.27,38.27 0 0 1 26.2,18.66 l -3.67,8.28 c -0.63,1.43 0.02,3.11 1.44,3.75 l 7.06,3.13 a 38.27,38.27 0 0 1 0.08,6.64 h -3.93 c -0.39,0 -0.55,0.26 -0.55,0.64 v 1.8 c 0,4.24 -2.39,5.17 -4.49,5.4 -2,0.23 -4.21,-0.84 -4.49,-2.06 -1.18,-6.63 -3.14,-8.04 -6.24,-10.49 3.85,-2.44 7.85,-6.05 7.85,-10.87 0,-5.21 -3.57,-8.49 -6,-10.1 -3.42,-2.25 -7.2,-2.7 -8.22,-2.7 h -40.6 a 38.27,38.27 0 0 1 21.41,-12.08 l 4.79,5.02 c 1.08,1.13 2.87,1.18 4,0.09 z m -44.2,23.02 a 3.11,3.11 0 0 1 3.02,3.11 3.11,3.11 0 0 1 -6.22,0 3.11,3.11 0 0 1 3.2,-3.11 z m 74.15,0.14 a 3.11,3.11 0 0 1 3.02,3.11 3.11,3.11 0 0 1 -6.22,0 3.11,3.11 0 0 1 3.2,-3.11 z m -68.29,0.5 h 5.42 v 24.44 h -10.94 a 38.27,38.27 0 0 1 -1.24,-14.61 l 6.7,-2.98 c 1.43,-0.64 2.08,-2.31 1.44,-3.74 z m 22.62,0.26 h 12.91 c 0.67,0 4.71,0.77 4.71,3.8 0,2.51 -3.1,3.41 -5.65,3.41 h -11.98 z m 0,17.56 h 9.89 c 0.9,0 4.83,0.26 6.08,5.28 0.39,1.54 1.26,6.56 1.85,8.17 0.59,1.8 2.98,5.4 5.53,5.4 h 16.14 a 38.27,38.27 0 0 1 -3.54,4.1 l -6.57,-1.41 c -1.53,-0.33 -3.04,0.65 -3.37,2.18 l -1.56,7.28 a 38.27,38.27 0 0 1 -31.91,-0.15 l -1.56,-7.28 c -0.33,-1.53 -1.83,-2.51 -3.36,-2.18 l -6.43,1.38 a 38.27,38.27 0 0 1 -3.32,-3.92 h 31.27 c 0.35,0 0.59,-0.06 0.59,-0.39 v -11.06 c 0,-0.32 -0.24,-0.39 -0.59,-0.39 h -9.15 z m -14.43,25.33 a 3.11,3.11 0 0 1 3.02,3.11 3.11,3.11 0 0 1 -6.22,0 3.11,3.11 0 0 1 3.2,-3.11 z m 46.05,0.14 a 3.11,3.11 0 0 1 3.02,3.11 3.11,3.11 0 0 1 -6.22,0 3.11,3.11 0 0 1 3.2,-3.11 z"
     id="path217" />
  <path
     d="m 96.879865,52.249865 a 44.63,44.63 0 0 1 -44.63,44.63 44.63,44.63 0 0 1 -44.6299999,-44.63 44.63,44.63 0 0 1 44.6299999,-44.6299999 44.63,44.63 0 0 1 44.63,44.6299999 z m -0.84,-4.31 6.960005,4.31 -6.960005,4.31 5.980005,5.59 -7.660005,2.87 4.78,6.65 -8.09,1.32 3.4,7.46 -8.19,-0.29 1.88,7.98 -7.98,-1.88 0.29,8.19 -7.46,-3.4 -1.32,8.09 -6.65,-4.78 -2.87,7.660005 -5.59,-5.980005 -4.31,6.960005 -4.31,-6.960005 -5.59,5.980005 -2.87,-7.660005 -6.65,4.78 -1.32,-8.09 -7.46,3.4 0.29,-8.19 -7.98,1.88 1.88,-7.98 -8.19,0.29 3.4,-7.46 -8.0899999,-1.32 4.7799999,-6.65 -7.6599999,-2.87 5.98,-5.59 -6.96,-4.31 6.96,-4.31 -5.98,-5.59 7.6599999,-2.87 -4.7799999,-6.65 8.0899999,-1.32 -3.4,-7.46 8.19,0.29 -1.88,-7.98 7.98,1.88 -0.29,-8.19 7.46,3.4 1.32,-8.0899999 6.65,4.7799999 2.87,-7.6599999 5.59,5.98 4.31,-6.96 4.31,6.96 5.59,-5.98 2.87,7.6599999 6.65,-4.7799999 1.32,8.0899999 7.46,-3.4 -0.29,8.19 7.98,-1.88 -1.88,7.98 8.19,-0.29 -3.4,7.46 8.09,1.32 -4.78,6.65 7.660005,2.87 z"
     fill-rule="evenodd"
     stroke="#000000"
     stroke-linecap="round"
     stroke-linejoin="round"
     stroke-width="3"
     id="path219" />
</svg>
