<svg xmlns="http://www.w3.org/2000/svg" xmlns:xlink="http://www.w3.org/1999/xlink" contentStyleType="text/css" data-diagram-type="DESCRIPTION" height="432px" preserveAspectRatio="none" style="width:916px;height:432px;background:#FFFFFF;" version="1.1" viewBox="0 0 916 432" width="916px" zoomAndPan="magnify"><defs/><g><!--cluster models--><g class="cluster" data-entity="models" data-source-line="2" data-uid="ent0002" id="cluster_models"><path d="M26.9875,312 L84.842,312 A3.75,3.75 0 0 1 87.342,314.5 L94.342,334.2969 L323.9875,334.2969 A2.5,2.5 0 0 1 326.4875,336.7969 L326.4875,422.5 A2.5,2.5 0 0 1 323.9875,425 L26.9875,425 A2.5,2.5 0 0 1 24.4875,422.5 L24.4875,314.5 A2.5,2.5 0 0 1 26.9875,312" fill="none" style="stroke:#000000;stroke-width:1.5;"/><line style="stroke:#000000;stroke-width:1.5;" x1="24.4875" x2="94.342" y1="334.2969" y2="334.2969"/><text fill="#000000" font-family="sans-serif" font-size="14" font-weight="bold" lengthAdjust="spacing" textLength="56.8545" x="28.4875" y="326.9951">models</text></g><!--cluster modules--><g class="cluster" data-entity="modules" data-source-line="7" data-uid="ent0005" id="cluster_modules"><path d="M375.9875,312 L443.8088,312 A3.75,3.75 0 0 1 446.3088,314.5 L453.3088,334.2969 L715.9875,334.2969 A2.5,2.5 0 0 1 718.4875,336.7969 L718.4875,422.5 A2.5,2.5 0 0 1 715.9875,425 L375.9875,425 A2.5,2.5 0 0 1 373.4875,422.5 L373.4875,314.5 A2.5,2.5 0 0 1 375.9875,312" fill="none" style="stroke:#000000;stroke-width:1.5;"/><line style="stroke:#000000;stroke-width:1.5;" x1="373.4875" x2="453.3088" y1="334.2969" y2="334.2969"/><text fill="#000000" font-family="sans-serif" font-size="14" font-weight="bold" lengthAdjust="spacing" textLength="66.8213" x="377.4875" y="326.9951">modules</text></g><!--cluster services--><g class="cluster" data-entity="services" data-source-line="11" data-uid="ent0007" id="cluster_services"><path d="M52.9875,159 L118.7717,159 A3.75,3.75 0 0 1 121.2717,161.5 L128.2717,181.2969 L369.9875,181.2969 A2.5,2.5 0 0 1 372.4875,183.7969 L372.4875,269.5 A2.5,2.5 0 0 1 369.9875,272 L52.9875,272 A2.5,2.5 0 0 1 50.4875,269.5 L50.4875,161.5 A2.5,2.5 0 0 1 52.9875,159" fill="none" style="stroke:#000000;stroke-width:1.5;"/><line style="stroke:#000000;stroke-width:1.5;" x1="50.4875" x2="128.2717" y1="181.2969" y2="181.2969"/><text fill="#000000" font-family="sans-serif" font-size="14" font-weight="bold" lengthAdjust="spacing" textLength="64.7842" x="54.4875" y="173.9951">services</text></g><!--cluster web_src--><g class="cluster" data-entity="web_src" data-source-line="16" data-uid="ent0010" id="cluster_web_src"><path d="M461.9875,164 L525.9738,164 A3.75,3.75 0 0 1 528.4738,166.5 L535.4738,186.2969 L667.9875,186.2969 A2.5,2.5 0 0 1 670.4875,188.7969 L670.4875,264.5 A2.5,2.5 0 0 1 667.9875,267 L461.9875,267 A2.5,2.5 0 0 1 459.4875,264.5 L459.4875,166.5 A2.5,2.5 0 0 1 461.9875,164" fill="none" style="stroke:#000000;stroke-width:1.5;"/><line style="stroke:#000000;stroke-width:1.5;" x1="459.4875" x2="535.4738" y1="186.2969" y2="186.2969"/><text fill="#000000" font-family="sans-serif" font-size="14" font-weight="bold" lengthAdjust="spacing" textLength="62.9863" x="463.4875" y="178.9951">web_src</text></g><!--cluster routers--><g class="cluster" data-entity="routers" data-source-line="20" data-uid="ent0012" id="cluster_routers"><path d="M408.9875,6 L467.9016,6 A3.75,3.75 0 0 1 470.4016,8.5 L477.4016,28.2969 L685.9875,28.2969 A2.5,2.5 0 0 1 688.4875,30.7969 L688.4875,116.5 A2.5,2.5 0 0 1 685.9875,119 L408.9875,119 A2.5,2.5 0 0 1 406.4875,116.5 L406.4875,8.5 A2.5,2.5 0 0 1 408.9875,6" fill="none" style="stroke:#000000;stroke-width:1.5;"/><line style="stroke:#000000;stroke-width:1.5;" x1="406.4875" x2="477.4016" y1="28.2969" y2="28.2969"/><text fill="#000000" font-family="sans-serif" font-size="14" font-weight="bold" lengthAdjust="spacing" textLength="57.9141" x="410.4875" y="20.9951">routers</text></g><!--cluster templates--><g class="cluster" data-entity="templates" data-source-line="25" data-uid="ent0015" id="cluster_templates"><path d="M712.9875,164 L793.551,164 A3.75,3.75 0 0 1 796.051,166.5 L803.051,186.2969 L906.9875,186.2969 A2.5,2.5 0 0 1 909.4875,188.7969 L909.4875,264.5 A2.5,2.5 0 0 1 906.9875,267 L712.9875,267 A2.5,2.5 0 0 1 710.4875,264.5 L710.4875,166.5 A2.5,2.5 0 0 1 712.9875,164" fill="none" style="stroke:#000000;stroke-width:1.5;"/><line style="stroke:#000000;stroke-width:1.5;" x1="710.4875" x2="803.051" y1="186.2969" y2="186.2969"/><text fill="#000000" font-family="sans-serif" font-size="14" font-weight="bold" lengthAdjust="spacing" textLength="79.5635" x="714.4875" y="178.9951">templates</text></g><!--entity DB--><g class="entity" data-entity="DB" data-source-line="3" data-uid="ent0003" id="entity_DB"><path d="M262.4875,365.5 C262.4875,355.5 282.6799,355.5 282.6799,355.5 C282.6799,355.5 302.8723,355.5 302.8723,365.5 L302.8723,390.7969 C302.8723,400.7969 282.6799,400.7969 282.6799,400.7969 C282.6799,400.7969 262.4875,400.7969 262.4875,390.7969 L262.4875,365.5" fill="#F1F1F1" style="stroke:#181818;stroke-width:0.5;"/><path d="M262.4875,365.5 C262.4875,375.5 282.6799,375.5 282.6799,375.5 C282.6799,375.5 302.8723,375.5 302.8723,365.5" fill="none" style="stroke:#181818;stroke-width:0.5;"/><text fill="#000000" font-family="sans-serif" font-size="14" lengthAdjust="spacing" textLength="20.3848" x="272.4875" y="392.4951">DB</text></g><!--entity ActionRun model--><g class="entity" data-entity="ActionRun model" data-source-line="4" data-uid="ent0004" id="entity_ActionRun model"><rect fill="#F1F1F1" height="46.2969" rx="2.5" ry="2.5" style="stroke:#181818;stroke-width:0.5;" width="159.6084" x="67.4875" y="355"/><rect fill="#F1F1F1" height="10" style="stroke:#181818;stroke-width:0.5;" width="15" x="207.0959" y="360"/><rect fill="#F1F1F1" height="2" style="stroke:#181818;stroke-width:0.5;" width="4" x="205.0959" y="362"/><rect fill="#F1F1F1" height="2" style="stroke:#181818;stroke-width:0.5;" width="4" x="205.0959" y="366"/><text fill="#000000" font-family="sans-serif" font-size="14" lengthAdjust="spacing" textLength="119.6084" x="82.4875" y="387.9951">ActionRun model</text></g><!--entity some thing that could be a library--><g class="entity" data-entity="some thing that could be a library" data-source-line="8" data-uid="ent0006" id="entity_some thing that could be a library"><rect fill="#F1F1F1" height="46.2969" rx="2.5" ry="2.5" style="stroke:#181818;stroke-width:0.5;" width="278.2871" x="416.4875" y="355"/><rect fill="#F1F1F1" height="10" style="stroke:#181818;stroke-width:0.5;" width="15" x="674.7746" y="360"/><rect fill="#F1F1F1" height="2" style="stroke:#181818;stroke-width:0.5;" width="4" x="672.7746" y="362"/><rect fill="#F1F1F1" height="2" style="stroke:#181818;stroke-width:0.5;" width="4" x="672.7746" y="366"/><text fill="#000000" font-family="sans-serif" font-size="14" lengthAdjust="spacing" textLength="238.2871" x="431.4875" y="387.9951">some thing that could be a library</text></g><!--entity git code--><g class="entity" data-entity="git code" data-source-line="12" data-uid="ent0008" id="entity_git code"><rect fill="#F1F1F1" height="46.2969" rx="2.5" ry="2.5" style="stroke:#181818;stroke-width:0.5;" width="96.4785" x="252.4875" y="202"/><rect fill="#F1F1F1" height="10" style="stroke:#181818;stroke-width:0.5;" width="15" x="328.966" y="207"/><rect fill="#F1F1F1" height="2" style="stroke:#181818;stroke-width:0.5;" width="4" x="326.966" y="209"/><rect fill="#F1F1F1" height="2" style="stroke:#181818;stroke-width:0.5;" width="4" x="326.966" y="213"/><text fill="#000000" font-family="sans-serif" font-size="14" lengthAdjust="spacing" textLength="56.4785" x="267.4875" y="234.9951">git code</text></g><!--entity mailer code--><g class="entity" data-entity="mailer code" data-source-line="13" data-uid="ent0009" id="entity_mailer code"><rect fill="#F1F1F1" height="46.2969" rx="2.5" ry="2.5" style="stroke:#181818;stroke-width:0.5;" width="122.5781" x="93.9875" y="202"/><rect fill="#F1F1F1" height="10" style="stroke:#181818;stroke-width:0.5;" width="15" x="196.5656" y="207"/><rect fill="#F1F1F1" height="2" style="stroke:#181818;stroke-width:0.5;" width="4" x="194.5656" y="209"/><rect fill="#F1F1F1" height="2" style="stroke:#181818;stroke-width:0.5;" width="4" x="194.5656" y="213"/><text fill="#000000" font-family="sans-serif" font-size="14" lengthAdjust="spacing" textLength="82.5781" x="108.9875" y="234.9951">mailer code</text></g><!--entity some web source--><g class="entity" data-entity="some web source" data-source-line="17" data-uid="ent0011" id="entity_some web source"><path d="M502.9875,209.5 L502.9875,240.7969 A2.5,2.5 0 0 0 505.4875,243.2969 L643.2473,243.2969 A2.5,2.5 0 0 0 645.7473,240.7969 L645.7473,217 L635.7473,207 L505.4875,207 A2.5,2.5 0 0 0 502.9875,209.5" fill="#F1F1F1" style="stroke:#181818;stroke-width:0.5;"/><path d="M635.7473,207 L635.7473,214.5 A2.5,2.5 0 0 0 638.2473,217 L645.7473,217" fill="#F1F1F1" style="stroke:#181818;stroke-width:0.5;"/><text fill="#000000" font-family="sans-serif" font-size="14" lengthAdjust="spacing" textLength="122.7598" x="512.9875" y="229.9951">some web source</text></g><!--entity API--><g class="entity" data-entity="API" data-source-line="21" data-uid="ent0013" id="entity_API"><rect fill="#F1F1F1" height="46.2969" rx="2.5" ry="2.5" style="stroke:#181818;stroke-width:0.5;" width="62.1484" x="602.4875" y="49"/><rect fill="#F1F1F1" height="10" style="stroke:#181818;stroke-width:0.5;" width="15" x="644.6359" y="54"/><rect fill="#F1F1F1" height="2" style="stroke:#181818;stroke-width:0.5;" width="4" x="642.6359" y="56"/><rect fill="#F1F1F1" height="2" style="stroke:#181818;stroke-width:0.5;" width="4" x="642.6359" y="60"/><text fill="#000000" font-family="sans-serif" font-size="14" lengthAdjust="spacing" textLength="22.1484" x="617.4875" y="81.9951">API</text></g><!--entity web routes--><g class="entity" data-entity="web routes" data-source-line="22" data-uid="ent0014" id="entity_web routes"><rect fill="#F1F1F1" height="46.2969" rx="2.5" ry="2.5" style="stroke:#181818;stroke-width:0.5;" width="117.9912" x="449.4875" y="49"/><rect fill="#F1F1F1" height="10" style="stroke:#181818;stroke-width:0.5;" width="15" x="547.4787" y="54"/><rect fill="#F1F1F1" height="2" style="stroke:#181818;stroke-width:0.5;" width="4" x="545.4787" y="56"/><rect fill="#F1F1F1" height="2" style="stroke:#181818;stroke-width:0.5;" width="4" x="545.4787" y="60"/><text fill="#000000" font-family="sans-serif" font-size="14" lengthAdjust="spacing" textLength="77.9912" x="464.4875" y="81.9951">web routes</text></g><!--entity go template file--><g class="entity" data-entity="go template file" data-source-line="26" data-uid="ent0016" id="entity_go template file"><path d="M753.9875,209.5 L753.9875,240.7969 A2.5,2.5 0 0 0 756.4875,243.2969 L882.3596,243.2969 A2.5,2.5 0 0 0 884.8596,240.7969 L884.8596,217 L874.8596,207 L756.4875,207 A2.5,2.5 0 0 0 753.9875,209.5" fill="#F1F1F1" style="stroke:#181818;stroke-width:0.5;"/><path d="M874.8596,207 L874.8596,214.5 A2.5,2.5 0 0 0 877.3596,217 L884.8596,217" fill="#F1F1F1" style="stroke:#181818;stroke-width:0.5;"/><text fill="#000000" font-family="sans-serif" font-size="14" lengthAdjust="spacing" textLength="110.8721" x="763.9875" y="229.9951">go template file</text></g><!--link services to models--><g class="link" data-entity-1="services" data-entity-2="models" data-source-line="33" data-uid="lnk17" id="link_services_models"><path d="M50.53,272.2205 C50.4843,272.4862 50.4384,272.7525 50.3925,273.0194 C50.3005,273.5532 50.2083,274.0891 50.1156,274.6272 C48.6332,283.2363 47.0584,292.3816 45.4838,301.5263 C45.0901,303.8124 44.6964,306.0986 44.3042,308.3763 C44.1081,309.5151 44.9305,304.7389 44.7353,305.8725" fill="none" id="services-to-models" style="stroke:#181818;stroke-width:1;"/><polygon fill="#181818" points="43.7171,311.7855,49.1864,303.5948,44.5656,306.858,41.3025,302.2372,43.7171,311.7855" style="stroke:#181818;stroke-width:1;"/></g><!--link services to modules--><g class="link" data-entity-1="services" data-entity-2="modules" data-source-line="34" data-uid="lnk18" id="link_services_modules"><path d="M65.4041,272.1395 C65.495,272.3381 65.587,272.5361 65.6802,272.7335 C65.8665,273.1282 66.0574,273.5205 66.2529,273.9101 C66.6439,274.6893 67.0536,275.4577 67.4826,276.2132 C68.3407,277.7243 69.2765,279.1841 70.2968,280.5767 C72.3375,283.362 74.7162,285.8787 77.4875,288 C98.7675,304.28 294.6175,283.83 318.4875,296 C338.4875,306.195 354.0625,325.9775 364.7225,343.44 C367.3875,347.8056 369.7453,352.0263 371.7883,355.9158 C372.299,356.8882 372.7901,357.8399 373.2614,358.768 C373.3203,358.884 370.6713,353.6453 370.7296,353.7606" fill="none" id="services-to-modules" style="stroke:#181818;stroke-width:1;"/><polygon fill="#181818" points="373.4372,359.1149,372.9453,349.2784,371.1808,354.653,365.8062,352.8885,373.4372,359.1149" style="stroke:#181818;stroke-width:1;"/></g><!--link routers to services--><g class="link" data-entity-1="routers" data-entity-2="services" data-source-line="36" data-uid="lnk19" id="link_routers_services"><path d="M406.402,73.5247 C404.7979,73.6349 402.9718,73.7631 400.939,73.9099 C392.8079,74.4968 381.3693,75.3801 367.5955,76.5983 C340.0478,79.0347 303.1594,82.8106 264.7088,88.2337 C187.8075,99.08 104.6575,116.515 77.4875,143 C74.2813,146.125 71.573,149.6809 69.2891,153.5176 C68.7181,154.4768 68.1736,155.4535 67.6546,156.4454 C67.395,156.9414 67.1418,157.4411 66.8948,157.9444 C66.7713,158.196 69.225,153.0295 69.1046,153.2829" fill="none" id="routers-to-services" style="stroke:#181818;stroke-width:1;"/><polygon fill="#181818" points="66.529,158.7019,74.0051,152.2904,68.6753,154.186,66.7798,148.8562,66.529,158.7019" style="stroke:#181818;stroke-width:1;"/></g><!--link routers to modules--><g class="link" data-entity-1="routers" data-entity-2="modules" data-source-line="37" data-uid="lnk20" id="link_routers_modules"><path d="M409.4692,119.2172 C409.3751,120.085 409.2799,120.962 409.1838,121.8478 C406.1075,150.1944 402.0475,187.6038 397.9875,225.0125 C395.9575,243.7169 393.9275,262.4211 392.0205,279.9922 C391.067,288.7778 390.1442,297.2801 389.2675,305.3575 C389.0484,307.3768 389.4795,303.4047 389.2663,305.3687" fill="none" id="routers-to-modules" style="stroke:#181818;stroke-width:1;"/><polygon fill="#181818" points="388.6189,311.3337,393.5666,302.8178,389.1584,306.3629,385.6134,301.9546,388.6189,311.3337" style="stroke:#181818;stroke-width:1;"/></g><!--link routers to models--><g class="link" data-entity-1="routers" data-entity-2="models" data-source-line="38" data-uid="lnk21" id="link_routers_models"><path d="M406.0749,73.2254 C405.8578,73.2321 405.6367,73.2389 405.4118,73.2459 C403.6126,73.3019 401.5648,73.3691 399.2857,73.4488 C390.1692,73.7679 377.3516,74.2885 361.9369,75.1077 C331.1075,76.7459 289.89,79.5781 247.1175,84.3788 C161.5725,93.98 69.8075,111.455 42.4875,143 C8.9475,181.73 6,239.0225 11.6563,287.2225 C14.4844,311.3225 19.4634,333.1494 23.8448,349.2463 C23.9818,349.7493 24.1181,350.2467 24.2538,350.7384 C24.3216,350.9843 22.7836,345.4476 22.8511,345.6906" fill="none" id="routers-to-models" style="stroke:#181818;stroke-width:1;"/><polygon fill="#181818" points="24.4568,351.4717,25.9024,341.7296,23.1187,346.6541,18.1942,343.8704,24.4568,351.4717" style="stroke:#181818;stroke-width:1;"/></g><!--link routers to web_src--><g class="link" data-entity-1="routers" data-entity-2="web_src" data-source-line="39" data-uid="lnk22" id="link_routers_web_src"><path d="M426.2309,119.1538 C426.3916,119.5758 426.5543,119.9974 426.7188,120.4184 C427.3769,122.1021 428.0654,123.7754 428.7853,125.4275 C430.225,128.7317 431.79,131.9513 433.4875,135 C435.7875,139.13 438.1375,138.9 440.4875,143 C445.0575,150.975 448.9975,159.8381 452.3447,168.6914 C454.0183,173.118 455.5437,177.5422 456.9255,181.8517 C457.6164,184.0064 458.2715,186.1325 458.8912,188.2158 C459.0461,188.7367 459.1988,189.2549 459.3494,189.7701 C459.387,189.899 457.749,184.2663 457.7864,184.3947" fill="none" id="routers-to-web_src" style="stroke:#181818;stroke-width:1;"/><polygon fill="#181818" points="459.4618,190.156,460.7895,180.3971,458.0656,185.355,453.1077,182.6311,459.4618,190.156" style="stroke:#181818;stroke-width:1;"/></g><!--link routers to templates--><g class="link" data-entity-1="routers" data-entity-2="templates" data-source-line="40" data-uid="lnk23" id="link_routers_templates"><path d="M421.4082,119.1312 C421.4991,119.3298 421.5912,119.5278 421.6843,119.7252 C421.8706,120.1201 422.0614,120.5125 422.2569,120.9021 C422.6479,121.6815 423.0574,122.45 423.4863,123.2058 C424.3442,124.7173 425.2797,126.1777 426.2997,127.571 C428.3397,130.3577 430.7175,132.8763 433.4875,135 C453.6875,150.49 640.1475,130.78 662.4875,143 C681.3875,153.335 695.2475,173.1175 704.4513,190.545 C706.7522,194.9019 706.3237,193.6294 708.0486,197.5075" fill="none" id="routers-to-templates" style="stroke:#181818;stroke-width:1;"/><polygon fill="#181818" points="710.487,202.9896,710.4842,193.1408,708.455,198.4212,703.1747,196.392,710.487,202.9896" style="stroke:#181818;stroke-width:1;"/></g><!--SRC=[TP7BQeKm48RtFiMGZQlp2eLJkkckT2kXH3FQG4nABkTGIj-zkMZY8TQ5OBxvyi-CivOS3P1LSvIMm4y7uU7CiP5P1FBoJDB9S9sSqEhTAqYbjFljkhdANcAn1wjN1FSfr1BUpC6alUGm8Z2GOZJCV3_e5irDJ0T_4T7XIFFdoeGCTVdauDrn_B1cshKvL8NBOdOWOBKt4vAZOBHtQ6hEzUrrYuX2elOXmU7w9PchhUMCHSDEqaaAwQjaNHBwTBLG3XV3ulOW8ThreNpOfwPmuVgkBazXqFGJw7yixfW6SnlZ04lz6IpcESk9BTgsUyhANa8x_P2dQYyz9RcL5jKHMbPQQT7UsmawDFa7]--></g></svg>